<mxfile host="Electron" modified="2024-03-26T01:50:59.520Z" agent="Mozilla/5.0 (Windows NT 10.0; Win64; x64) AppleWebKit/537.36 (KHTML, like Gecko) draw.io/23.1.5 Chrome/120.0.6099.109 Electron/28.1.0 Safari/537.36" etag="b-8puQTGwV_ztbygLZh_" version="23.1.5" type="device">
  <diagram name="Page-1" id="avn1nECerIphiHq_dtDn">
    <mxGraphModel dx="1720" dy="892" grid="1" gridSize="10" guides="1" tooltips="1" connect="1" arrows="1" fold="1" page="1" pageScale="1" pageWidth="4681" pageHeight="3300" math="0" shadow="0">
      <root>
        <mxCell id="0" />
        <mxCell id="1" parent="0" />
        <mxCell id="ULvGwNIMzoL0Pr3KIDlY-1" value="&lt;h1&gt;Sơ đồ usecase cho flashcard&amp;nbsp;&lt;/h1&gt;&lt;div&gt;1. Actor : Người dùng&amp;nbsp;&lt;/div&gt;" style="text;html=1;spacing=5;spacingTop=-20;whiteSpace=wrap;overflow=hidden;rounded=0;" parent="1" vertex="1">
          <mxGeometry x="930" y="50" width="530" height="100" as="geometry" />
        </mxCell>
        <mxCell id="Acvu8wNrMc-fgS1Co2WB-1" value="Người dùng" style="shape=umlActor;verticalLabelPosition=bottom;verticalAlign=top;html=1;outlineConnect=0;" vertex="1" parent="1">
          <mxGeometry x="450" y="650" width="30" height="60" as="geometry" />
        </mxCell>
        <mxCell id="Acvu8wNrMc-fgS1Co2WB-2" value="Đăng nhập&amp;nbsp;" style="ellipse;whiteSpace=wrap;html=1;" vertex="1" parent="1">
          <mxGeometry x="640" y="460" width="140" height="70" as="geometry" />
        </mxCell>
        <mxCell id="Acvu8wNrMc-fgS1Co2WB-3" value="Đăng kí tài khoản" style="ellipse;whiteSpace=wrap;html=1;" vertex="1" parent="1">
          <mxGeometry x="640" y="580" width="140" height="70" as="geometry" />
        </mxCell>
        <mxCell id="Acvu8wNrMc-fgS1Co2WB-4" value="Đổi mật khẩu&amp;nbsp;" style="ellipse;whiteSpace=wrap;html=1;" vertex="1" parent="1">
          <mxGeometry x="795" y="370" width="140" height="70" as="geometry" />
        </mxCell>
        <mxCell id="Acvu8wNrMc-fgS1Co2WB-5" value="Tạo folder học tập" style="ellipse;whiteSpace=wrap;html=1;" vertex="1" parent="1">
          <mxGeometry x="640" y="710" width="140" height="70" as="geometry" />
        </mxCell>
        <mxCell id="Acvu8wNrMc-fgS1Co2WB-6" value="Tạo studyset" style="ellipse;whiteSpace=wrap;html=1;" vertex="1" parent="1">
          <mxGeometry x="640" y="860" width="140" height="70" as="geometry" />
        </mxCell>
        <mxCell id="Acvu8wNrMc-fgS1Co2WB-7" value="Extends" style="endArrow=block;endSize=16;endFill=0;html=1;rounded=0;exitX=0.5;exitY=0;exitDx=0;exitDy=0;entryX=0.5;entryY=1;entryDx=0;entryDy=0;" edge="1" parent="1" source="Acvu8wNrMc-fgS1Co2WB-6" target="Acvu8wNrMc-fgS1Co2WB-5">
          <mxGeometry width="160" relative="1" as="geometry">
            <mxPoint x="710" y="790" as="sourcePoint" />
            <mxPoint x="720" y="790" as="targetPoint" />
          </mxGeometry>
        </mxCell>
        <mxCell id="Acvu8wNrMc-fgS1Co2WB-9" value="Tạo từ vựng mới&amp;nbsp;" style="ellipse;whiteSpace=wrap;html=1;" vertex="1" parent="1">
          <mxGeometry x="970" y="860" width="140" height="70" as="geometry" />
        </mxCell>
        <mxCell id="Acvu8wNrMc-fgS1Co2WB-10" value="" style="endArrow=block;dashed=1;endFill=0;endSize=12;html=1;rounded=0;entryX=0;entryY=0.5;entryDx=0;entryDy=0;" edge="1" parent="1" source="Acvu8wNrMc-fgS1Co2WB-6" target="Acvu8wNrMc-fgS1Co2WB-9">
          <mxGeometry width="160" relative="1" as="geometry">
            <mxPoint x="780" y="895" as="sourcePoint" />
            <mxPoint x="940" y="895" as="targetPoint" />
          </mxGeometry>
        </mxCell>
        <mxCell id="Acvu8wNrMc-fgS1Co2WB-11" value="include" style="text;html=1;align=center;verticalAlign=middle;resizable=0;points=[];autosize=1;strokeColor=none;fillColor=none;" vertex="1" parent="1">
          <mxGeometry x="830" y="868" width="60" height="30" as="geometry" />
        </mxCell>
        <mxCell id="Acvu8wNrMc-fgS1Co2WB-12" value="" style="endArrow=none;html=1;rounded=0;entryX=0;entryY=1;entryDx=0;entryDy=0;" edge="1" parent="1" source="Acvu8wNrMc-fgS1Co2WB-1" target="Acvu8wNrMc-fgS1Co2WB-2">
          <mxGeometry width="50" height="50" relative="1" as="geometry">
            <mxPoint x="800" y="750" as="sourcePoint" />
            <mxPoint x="850" y="700" as="targetPoint" />
          </mxGeometry>
        </mxCell>
        <mxCell id="Acvu8wNrMc-fgS1Co2WB-13" value="" style="endArrow=none;html=1;rounded=0;entryX=0;entryY=1;entryDx=0;entryDy=0;" edge="1" parent="1" source="Acvu8wNrMc-fgS1Co2WB-1" target="Acvu8wNrMc-fgS1Co2WB-3">
          <mxGeometry width="50" height="50" relative="1" as="geometry">
            <mxPoint x="800" y="750" as="sourcePoint" />
            <mxPoint x="850" y="700" as="targetPoint" />
          </mxGeometry>
        </mxCell>
        <mxCell id="Acvu8wNrMc-fgS1Co2WB-17" value="" style="endArrow=none;html=1;rounded=0;entryX=0;entryY=0.5;entryDx=0;entryDy=0;" edge="1" parent="1" source="Acvu8wNrMc-fgS1Co2WB-1" target="Acvu8wNrMc-fgS1Co2WB-5">
          <mxGeometry width="50" height="50" relative="1" as="geometry">
            <mxPoint x="800" y="750" as="sourcePoint" />
            <mxPoint x="850" y="700" as="targetPoint" />
          </mxGeometry>
        </mxCell>
        <mxCell id="Acvu8wNrMc-fgS1Co2WB-18" value="Thêm studyset vào folder" style="ellipse;whiteSpace=wrap;html=1;" vertex="1" parent="1">
          <mxGeometry x="720" y="1010" width="170" height="90" as="geometry" />
        </mxCell>
        <mxCell id="Acvu8wNrMc-fgS1Co2WB-19" value="Extends" style="endArrow=block;endSize=16;endFill=0;html=1;rounded=0;exitX=0.46;exitY=0.027;exitDx=0;exitDy=0;entryX=0.5;entryY=1;entryDx=0;entryDy=0;exitPerimeter=0;" edge="1" parent="1" source="Acvu8wNrMc-fgS1Co2WB-18" target="Acvu8wNrMc-fgS1Co2WB-6">
          <mxGeometry width="160" relative="1" as="geometry">
            <mxPoint x="714.5" y="1020" as="sourcePoint" />
            <mxPoint x="714.5" y="940" as="targetPoint" />
          </mxGeometry>
        </mxCell>
        <mxCell id="Acvu8wNrMc-fgS1Co2WB-20" value="Xem lại studyset" style="ellipse;whiteSpace=wrap;html=1;" vertex="1" parent="1">
          <mxGeometry x="700" y="1180" width="140" height="70" as="geometry" />
        </mxCell>
        <mxCell id="Acvu8wNrMc-fgS1Co2WB-21" value="" style="endArrow=none;html=1;rounded=0;entryX=0;entryY=0;entryDx=0;entryDy=0;" edge="1" parent="1" source="Acvu8wNrMc-fgS1Co2WB-1" target="Acvu8wNrMc-fgS1Co2WB-20">
          <mxGeometry width="50" height="50" relative="1" as="geometry">
            <mxPoint x="800" y="1050" as="sourcePoint" />
            <mxPoint x="850" y="1000" as="targetPoint" />
          </mxGeometry>
        </mxCell>
        <mxCell id="Acvu8wNrMc-fgS1Co2WB-23" value="Sửa lại studyset" style="ellipse;whiteSpace=wrap;html=1;" vertex="1" parent="1">
          <mxGeometry x="700" y="1340" width="140" height="70" as="geometry" />
        </mxCell>
        <mxCell id="Acvu8wNrMc-fgS1Co2WB-24" value="" style="endArrow=none;html=1;rounded=0;entryX=0;entryY=0;entryDx=0;entryDy=0;" edge="1" parent="1" source="Acvu8wNrMc-fgS1Co2WB-1" target="Acvu8wNrMc-fgS1Co2WB-23">
          <mxGeometry width="50" height="50" relative="1" as="geometry">
            <mxPoint x="930" y="960" as="sourcePoint" />
            <mxPoint x="980" y="910" as="targetPoint" />
          </mxGeometry>
        </mxCell>
        <mxCell id="Acvu8wNrMc-fgS1Co2WB-27" value="Sửa lại nội dung folder" style="ellipse;whiteSpace=wrap;html=1;" vertex="1" parent="1">
          <mxGeometry x="700" y="1520" width="140" height="70" as="geometry" />
        </mxCell>
        <mxCell id="Acvu8wNrMc-fgS1Co2WB-28" value="" style="endArrow=none;html=1;rounded=0;entryX=0.009;entryY=0.331;entryDx=0;entryDy=0;entryPerimeter=0;" edge="1" parent="1" source="Acvu8wNrMc-fgS1Co2WB-1" target="Acvu8wNrMc-fgS1Co2WB-27">
          <mxGeometry width="50" height="50" relative="1" as="geometry">
            <mxPoint x="930" y="1260" as="sourcePoint" />
            <mxPoint x="980" y="1210" as="targetPoint" />
          </mxGeometry>
        </mxCell>
        <mxCell id="Acvu8wNrMc-fgS1Co2WB-29" value="Hệ thống" style="shape=umlActor;verticalLabelPosition=bottom;verticalAlign=top;html=1;" vertex="1" parent="1">
          <mxGeometry x="1720" y="910" width="30" height="60" as="geometry" />
        </mxCell>
        <mxCell id="Acvu8wNrMc-fgS1Co2WB-30" value="" style="endArrow=none;html=1;rounded=0;entryX=0;entryY=0;entryDx=0;entryDy=0;" edge="1" parent="1" source="Acvu8wNrMc-fgS1Co2WB-1" target="Acvu8wNrMc-fgS1Co2WB-6">
          <mxGeometry width="50" height="50" relative="1" as="geometry">
            <mxPoint x="1230" y="940" as="sourcePoint" />
            <mxPoint x="1280" y="890" as="targetPoint" />
          </mxGeometry>
        </mxCell>
        <mxCell id="Acvu8wNrMc-fgS1Co2WB-31" value="Chỉnh sửa từ (thêm xóa, sửa)&amp;nbsp;" style="ellipse;whiteSpace=wrap;html=1;" vertex="1" parent="1">
          <mxGeometry x="940.5" y="1340" width="140" height="70" as="geometry" />
        </mxCell>
        <mxCell id="Acvu8wNrMc-fgS1Co2WB-32" value="Chỉnh sửa nội dung (thêm sửa xóa" style="ellipse;whiteSpace=wrap;html=1;" vertex="1" parent="1">
          <mxGeometry x="940.5" y="1460" width="140" height="70" as="geometry" />
        </mxCell>
        <mxCell id="Acvu8wNrMc-fgS1Co2WB-33" value="Extends" style="endArrow=block;endSize=16;endFill=0;html=1;rounded=0;exitX=0;exitY=0.5;exitDx=0;exitDy=0;entryX=1;entryY=0;entryDx=0;entryDy=0;" edge="1" parent="1" source="Acvu8wNrMc-fgS1Co2WB-31" target="Acvu8wNrMc-fgS1Co2WB-23">
          <mxGeometry width="160" relative="1" as="geometry">
            <mxPoint x="860.5" y="1310" as="sourcePoint" />
            <mxPoint x="829.997474683058" y="1390.2512626584708" as="targetPoint" />
          </mxGeometry>
        </mxCell>
        <mxCell id="Acvu8wNrMc-fgS1Co2WB-34" value="Extends" style="endArrow=block;endSize=16;endFill=0;html=1;rounded=0;exitX=0;exitY=0;exitDx=0;exitDy=0;" edge="1" parent="1" source="Acvu8wNrMc-fgS1Co2WB-32" target="Acvu8wNrMc-fgS1Co2WB-23">
          <mxGeometry width="160" relative="1" as="geometry">
            <mxPoint x="890.5" y="1450" as="sourcePoint" />
            <mxPoint x="829.997474683058" y="1439.7487373415292" as="targetPoint" />
          </mxGeometry>
        </mxCell>
        <mxCell id="Acvu8wNrMc-fgS1Co2WB-35" value="Xem thời gian học&amp;nbsp;" style="ellipse;whiteSpace=wrap;html=1;" vertex="1" parent="1">
          <mxGeometry x="950" y="1100" width="140" height="70" as="geometry" />
        </mxCell>
        <mxCell id="Acvu8wNrMc-fgS1Co2WB-36" value="Extends" style="endArrow=block;endSize=16;endFill=0;html=1;rounded=0;exitX=0;exitY=0.5;exitDx=0;exitDy=0;entryX=1;entryY=0;entryDx=0;entryDy=0;" edge="1" parent="1" source="Acvu8wNrMc-fgS1Co2WB-35" target="Acvu8wNrMc-fgS1Co2WB-20">
          <mxGeometry width="160" relative="1" as="geometry">
            <mxPoint x="850" y="1140" as="sourcePoint" />
            <mxPoint x="762" y="1058" as="targetPoint" />
          </mxGeometry>
        </mxCell>
        <mxCell id="Acvu8wNrMc-fgS1Co2WB-37" value="Học studyset" style="ellipse;whiteSpace=wrap;html=1;" vertex="1" parent="1">
          <mxGeometry x="950" y="1230" width="140" height="70" as="geometry" />
        </mxCell>
        <mxCell id="Acvu8wNrMc-fgS1Co2WB-38" value="Extends" style="endArrow=block;endSize=16;endFill=0;html=1;rounded=0;exitX=0;exitY=0.5;exitDx=0;exitDy=0;entryX=1;entryY=1;entryDx=0;entryDy=0;" edge="1" parent="1" source="Acvu8wNrMc-fgS1Co2WB-37" target="Acvu8wNrMc-fgS1Co2WB-20">
          <mxGeometry width="160" relative="1" as="geometry">
            <mxPoint x="890" y="1210" as="sourcePoint" />
            <mxPoint x="759" y="1265" as="targetPoint" />
          </mxGeometry>
        </mxCell>
        <mxCell id="Acvu8wNrMc-fgS1Co2WB-39" value="Lựa chọn ngôn ngữ&amp;nbsp;" style="ellipse;whiteSpace=wrap;html=1;" vertex="1" parent="1">
          <mxGeometry x="1200" y="760" width="140" height="70" as="geometry" />
        </mxCell>
        <mxCell id="Acvu8wNrMc-fgS1Co2WB-40" value="Điền từ" style="ellipse;whiteSpace=wrap;html=1;" vertex="1" parent="1">
          <mxGeometry x="1200" y="950" width="140" height="70" as="geometry" />
        </mxCell>
        <mxCell id="Acvu8wNrMc-fgS1Co2WB-41" value="" style="endArrow=block;dashed=1;endFill=0;endSize=12;html=1;rounded=0;entryX=0;entryY=0.5;entryDx=0;entryDy=0;exitX=1;exitY=0;exitDx=0;exitDy=0;" edge="1" parent="1" target="Acvu8wNrMc-fgS1Co2WB-39">
          <mxGeometry width="160" relative="1" as="geometry">
            <mxPoint x="1089.997474683058" y="870.251262658471" as="sourcePoint" />
            <mxPoint x="1180.5" y="825" as="targetPoint" />
          </mxGeometry>
        </mxCell>
        <mxCell id="Acvu8wNrMc-fgS1Co2WB-42" value="include" style="text;html=1;align=center;verticalAlign=middle;resizable=0;points=[];autosize=1;strokeColor=none;fillColor=none;rotation=-30;" vertex="1" parent="1">
          <mxGeometry x="1090" y="820" width="60" height="30" as="geometry" />
        </mxCell>
        <mxCell id="Acvu8wNrMc-fgS1Co2WB-44" value="" style="endArrow=block;dashed=1;endFill=0;endSize=12;html=1;rounded=0;exitX=1;exitY=1;exitDx=0;exitDy=0;entryX=0;entryY=0.5;entryDx=0;entryDy=0;" edge="1" parent="1" source="Acvu8wNrMc-fgS1Co2WB-9" target="Acvu8wNrMc-fgS1Co2WB-40">
          <mxGeometry width="160" relative="1" as="geometry">
            <mxPoint x="1180" y="1050" as="sourcePoint" />
            <mxPoint x="1340" y="1050" as="targetPoint" />
          </mxGeometry>
        </mxCell>
        <mxCell id="Acvu8wNrMc-fgS1Co2WB-45" value="include" style="text;html=1;align=center;verticalAlign=middle;resizable=0;points=[];autosize=1;strokeColor=none;fillColor=none;" vertex="1" parent="1">
          <mxGeometry x="1120" y="918" width="60" height="30" as="geometry" />
        </mxCell>
        <mxCell id="Acvu8wNrMc-fgS1Co2WB-46" value="Xem thông tin" style="ellipse;whiteSpace=wrap;html=1;" vertex="1" parent="1">
          <mxGeometry x="640" y="250" width="140" height="70" as="geometry" />
        </mxCell>
      </root>
    </mxGraphModel>
  </diagram>
</mxfile>
